<svg xmlns="http://www.w3.org/2000/svg" xmlns:xlink="http://www.w3.org/1999/xlink" width="500" zoomAndPan="magnify" viewBox="0 0 375 374.999991" height="500" preserveAspectRatio="xMidYMid meet" version="1.0"><defs><g/><clipPath id="e526d1460f"><path d="M 6.738281 6.695312 L 367.953125 6.695312 L 367.953125 367.90625 L 6.738281 367.90625 Z M 6.738281 6.695312 " clip-rule="nonzero"/></clipPath></defs><g clip-path="url(#e526d1460f)"><path fill="#3b3aef" d="M 187.496094 368.207031 C 261.980469 368.207031 305.128906 352.941406 324.460938 343.683594 C 326.550781 342.679688 328.542969 341.507812 330.4375 340.164062 C 332.328125 338.824219 334.097656 337.332031 335.738281 335.691406 C 337.378906 334.050781 338.867188 332.285156 340.207031 330.394531 C 341.550781 328.5 342.722656 326.507812 343.726562 324.414062 C 352.984375 305.085938 368.25 261.9375 368.25 187.453125 C 368.25 112.964844 352.984375 69.816406 343.726562 50.488281 C 342.722656 48.394531 341.550781 46.402344 340.207031 44.511719 C 338.867188 42.617188 337.378906 40.851562 335.738281 39.210938 C 334.097656 37.570312 332.328125 36.078125 330.4375 34.738281 C 328.542969 33.394531 326.550781 32.222656 324.460938 31.222656 C 305.128906 21.960938 261.980469 6.695312 187.496094 6.695312 C 113.007812 6.695312 69.863281 21.960938 50.53125 31.222656 C 48.4375 32.222656 46.445312 33.394531 44.554688 34.738281 C 42.660156 36.078125 40.894531 37.570312 39.253906 39.210938 C 37.613281 40.851562 36.121094 42.617188 34.78125 44.511719 C 33.441406 46.402344 32.269531 48.394531 31.265625 50.488281 C 22.003906 69.816406 6.738281 112.964844 6.738281 187.453125 C 6.738281 261.9375 22.003906 305.085938 31.265625 324.414062 C 32.269531 326.507812 33.441406 328.5 34.78125 330.394531 C 36.121094 332.285156 37.613281 334.050781 39.253906 335.691406 C 40.894531 337.332031 42.660156 338.824219 44.554688 340.164062 C 46.445312 341.507812 48.4375 342.679688 50.53125 343.683594 C 69.863281 352.941406 113.007812 368.207031 187.496094 368.207031 Z M 187.496094 368.207031 " fill-opacity="1" fill-rule="nonzero"/></g><g fill="#f4f6fc" fill-opacity="1"><g transform="translate(61.307452, 284.63798)"><g><path d="M 58.21875 -161.734375 L 58.21875 0 L 19.40625 0 L 19.40625 -161.734375 Z M 38.8125 -180.15625 C 31.050781 -180.15625 24.957031 -182.632812 20.53125 -187.59375 C 16.113281 -192.5625 13.90625 -198.382812 13.90625 -205.0625 C 13.90625 -211.96875 16.113281 -217.789062 20.53125 -222.53125 C 24.957031 -227.28125 31.050781 -229.65625 38.8125 -229.65625 C 46.570312 -229.65625 52.609375 -227.226562 56.921875 -222.375 C 61.234375 -217.519531 63.390625 -211.75 63.390625 -205.0625 C 63.390625 -198.164062 61.234375 -192.289062 56.921875 -187.4375 C 52.609375 -182.582031 46.570312 -180.15625 38.8125 -180.15625 Z M 38.8125 -180.15625 "/></g></g></g><g fill="#f4f6fc" fill-opacity="1"><g transform="translate(138.937589, 284.63798)"><g><path d="M 136.171875 -80.859375 C 135.523438 -95.097656 131.859375 -106.363281 125.171875 -114.65625 C 118.492188 -122.957031 107.820312 -127.109375 93.15625 -127.109375 C 77.414062 -127.109375 66.09375 -122.582031 59.1875 -113.53125 C 52.289062 -104.476562 48.84375 -93.585938 48.84375 -80.859375 C 48.84375 -72.453125 50.296875 -64.742188 53.203125 -57.734375 C 56.117188 -50.722656 60.863281 -45.113281 67.4375 -40.90625 C 74.019531 -36.707031 82.59375 -34.609375 93.15625 -34.609375 C 106.519531 -34.609375 117.03125 -38.378906 124.6875 -45.921875 C 132.34375 -53.472656 136.171875 -65.117188 136.171875 -80.859375 Z M 187.921875 0 L 149.109375 0 C 147.390625 -4.3125 145.878906 -8.515625 144.578125 -12.609375 C 143.285156 -16.710938 142.101562 -20.8125 141.03125 -24.90625 C 135.632812 -16.925781 128.566406 -10.507812 119.828125 -5.65625 C 111.097656 -0.800781 100.695312 1.625 88.625 1.625 C 73.3125 1.625 59.722656 -2.039062 47.859375 -9.375 C 36.003906 -16.707031 26.734375 -26.679688 20.046875 -39.296875 C 13.367188 -51.910156 10.03125 -65.875 10.03125 -81.1875 C 10.03125 -96.28125 13.316406 -110.023438 19.890625 -122.421875 C 26.460938 -134.828125 35.945312 -144.75 48.34375 -152.1875 C 60.75 -159.625 75.6875 -163.34375 93.15625 -163.34375 C 117.738281 -163.34375 137.304688 -155.898438 151.859375 -141.015625 C 166.410156 -126.140625 174.117188 -106.085938 174.984375 -80.859375 C 175.203125 -75.472656 175.414062 -68.46875 175.625 -59.84375 C 175.84375 -51.21875 176.757812 -41.726562 178.375 -31.375 C 180 -21.019531 183.179688 -10.5625 187.921875 0 Z M 187.921875 0 "/></g></g></g></svg>