<svg version="1.2" xmlns="http://www.w3.org/2000/svg" viewBox="0 0 500 501" width="500" height="501">
	<title>icon-x-pyme-up-svg</title>
	<defs>
		<clipPath clipPathUnits="userSpaceOnUse" id="cp1">
			<path d="m493.5 6v487.5h-487.5v-487.5z"/>
		</clipPath>
		<clipPath clipPathUnits="userSpaceOnUse" id="cp2">
			<path d="m237 102.45v256.08h-179.59v-256.08z"/>
		</clipPath>
	</defs>
	<style>
		.s0 { fill: #3b3aef } 
		.s1 { fill: #f6f6f6 } 
		.s2 { fill: #f4f6fc } 
	</style>
	<g id="Clip-Path" clip-path="url(#cp1)">
		<g>
			<path class="s0" d="m249.7 493.5c100.5 0 158.7-20.6 184.7-33.1q8.5-4.1 15.2-10.8 6.7-6.7 10.8-15.2c12.5-26 33.1-84.2 33.1-184.7 0-100.4-20.6-158.6-33.1-184.7q-4.1-8.5-10.8-15.2-6.7-6.6-15.2-10.7c-26-12.5-84.2-33.1-184.7-33.1-100.4 0-158.6 20.6-184.7 33.1q-8.5 4.1-15.2 10.7-6.6 6.7-10.7 15.2c-12.5 26.1-33.1 84.3-33.1 184.7 0 100.5 20.6 158.7 33.1 184.7q4.1 8.5 10.7 15.2 6.7 6.7 15.2 10.8c26.1 12.5 84.3 33.1 184.7 33.1z"/>
		</g>
	</g>
	<g>
		<g>
			<g>
				<path class="s1" d="m307 337.2v87.3h-40.7v-152.8q0-24.1 10-43.6 10-19.6 29.2-31.3 19.2-11.7 47-11.7 28.9 0 48 12.2 19.2 12.3 29.1 31.8 9.8 19.5 9.8 42.2 0 24.1-10.5 44-10.5 19.9-29.2 31.4-18.7 11.6-42.8 11.6-16.6 0-28.9-5.8-12.2-5.8-21-15.3zm0-65.5q0 24.8 12.2 36.7 12.3 11.8 33 11.8 16.9 0 27.1-6.6 10.2-6.6 14.8-17.6 4.6-11.1 4.6-24.3 0-13.6-4.6-24.5-4.6-10.8-14.8-17.4-10.2-6.7-27.1-6.7-20.7 0-33 11.7-12.2 11.8-12.2 36.9z"/>
			</g>
		</g>
	</g>
	<g id="Clip-Path" clip-path="url(#cp2)">
		<g>
			<path class="s2" d="m210.9 192.2q-2.6 0-5 0.5-2.5 0.5-4.8 1.4-2.4 1-4.5 2.4-2 1.4-3.8 3.2-1.8 1.7-3.2 3.8-1.4 2.1-2.4 4.5-0.9 2.3-1.4 4.8-0.5 2.4-0.5 4.9v51.2q0 1.9-0.2 3.8-0.2 1.8-0.6 3.7-0.3 1.8-0.9 3.6-0.5 1.8-1.2 3.6-0.8 1.7-1.6 3.4-0.9 1.6-2 3.2-1 1.6-2.2 3-1.2 1.5-2.6 2.8-1.3 1.3-2.7 2.6-1.5 1.1-3.1 2.2-1.5 1-3.2 1.9-1.7 0.9-3.4 1.6-1.7 0.8-3.5 1.3-1.8 0.6-3.7 0.9-1.8 0.4-3.7 0.6-1.9 0.2-3.8 0.2-1.9 0-3.7-0.2-1.9-0.2-3.8-0.6-1.8-0.3-3.6-0.9-1.8-0.5-3.6-1.3-1.7-0.7-3.4-1.6-1.6-0.9-3.2-1.9-1.6-1.1-3-2.2-1.5-1.3-2.8-2.6-1.3-1.3-2.5-2.8-1.2-1.4-2.3-3-1-1.6-1.9-3.2-0.9-1.7-1.6-3.4-0.7-1.8-1.3-3.6-0.5-1.8-0.9-3.6-0.4-1.9-0.6-3.7-0.1-1.9-0.1-3.8v-140.7q0-2.5-0.5-5-0.5-2.4-1.5-4.7-0.9-2.4-2.3-4.5-1.4-2.1-3.2-3.8-1.8-1.8-3.9-3.2-2.1-1.4-4.4-2.4-2.4-1-4.8-1.4-2.5-0.5-5-0.5-2.5 0-5 0.5-2.5 0.4-4.8 1.4-2.3 1-4.4 2.4-2.1 1.4-3.9 3.2-1.8 1.7-3.2 3.8-1.4 2.1-2.3 4.5-1 2.3-1.5 4.7-0.5 2.5-0.5 5v140.7q0 0.3 0 0.7 0.1 4.3 0.5 8.7 0.5 4.3 1.4 8.6 0.9 4.2 2.2 8.4 1.3 4.2 3 8.2 1.7 4 3.8 7.8 2.1 3.9 4.6 7.5 2.4 3.6 5.2 6.9 2.8 3.4 5.9 6.5 3.1 3 6.5 5.8 3.4 2.7 7 5.1 3.7 2.5 7.5 4.5 3.9 2 7.9 3.7 4 1.7 8.2 2.9 4.2 1.3 8.5 2.1 4.3 0.9 8.6 1.3 4.4 0.4 8.7 0.4 4.4 0 8.7-0.4 4.4-0.4 8.7-1.3 4.2-0.8 8.4-2.1 4.2-1.2 8.2-2.9 4.1-1.7 7.9-3.7 3.9-2 7.5-4.5 3.7-2.4 7.1-5.1 3.3-2.8 6.4-5.8 3.1-3.1 5.9-6.5 2.8-3.3 5.3-6.9 2.4-3.6 4.5-7.5 2.1-3.8 3.8-7.8 1.7-4 3-8.2 1.3-4.2 2.2-8.4 0.9-4.3 1.4-8.6 0.5-4.4 0.5-8.7 0-0.4 0-0.7v-51.2q0-2.5-0.5-4.9-0.5-2.5-1.4-4.8-1-2.4-2.4-4.5-1.4-2.1-3.2-3.8-1.7-1.8-3.8-3.2-2.1-1.4-4.5-2.4-2.3-0.9-4.8-1.4-2.4-0.5-4.9-0.5zm0-89.5q-2.6 0-5 0.5-2.5 0.4-4.8 1.4-2.4 1-4.5 2.4-2 1.4-3.8 3.2-1.8 1.7-3.2 3.8-1.4 2.1-2.4 4.5-0.9 2.3-1.4 4.7-0.5 2.5-0.5 5v12.8q0 2.5 0.5 5 0.5 2.5 1.4 4.8 1 2.3 2.4 4.4 1.4 2.1 3.2 3.9 1.8 1.8 3.8 3.2 2.1 1.4 4.5 2.4 2.3 0.9 4.8 1.4 2.4 0.5 5 0.5 2.5 0 4.9-0.5 2.5-0.5 4.8-1.4 2.4-1 4.5-2.4 2.1-1.4 3.8-3.2 1.8-1.8 3.2-3.9 1.4-2.1 2.4-4.4 1-2.3 1.4-4.8 0.5-2.5 0.5-5v-12.8q0-2.5-0.5-5-0.4-2.4-1.4-4.7-1-2.4-2.4-4.5-1.4-2.1-3.2-3.8-1.7-1.8-3.8-3.2-2.1-1.4-4.5-2.4-2.3-1-4.8-1.4-2.4-0.5-4.9-0.5z"/>
		</g>
	</g>
</svg>